HIERARCHY
ROOT hip
{
	OFFSET 0.000000 0.000000 0.000000 
	CHANNELS 6 Xposition Yposition Zposition Xrotation Zrotation Yrotation
	JOINT abdomen
	{
		OFFSET 0.000000 3.402643 0.000000 
		CHANNELS 3 Xrotation Zrotation Yrotation
		JOINT chest
		{
			OFFSET 0.000000 8.438565 -0.680529 
			CHANNELS 3 Xrotation Zrotation Yrotation
			JOINT neck
			{
				OFFSET 0.000000 10.207942 -0.272212 
				CHANNELS 3 Xrotation Zrotation Yrotation
				JOINT head
				{
					OFFSET 0.000000 3.130431 0.000000 
					CHANNELS 3 Xrotation Zrotation Yrotation
					End Site
					{
						OFFSET 0.000000 3.130435 0.000000 
					}
				}
			}
			JOINT lCollar
			{
				OFFSET 3.470700 6.669187 -0.816635 
				CHANNELS 3 Yrotation Zrotation Xrotation
				JOINT lShldr
				{
					OFFSET 3.198488 0.000000 0.000000 
					CHANNELS 3 Zrotation Yrotation Xrotation
					JOINT lForeArm
					{
						OFFSET 10.139888 0.000000 0.000000 
						CHANNELS 3 Yrotation Zrotation Xrotation
						JOINT lHand
						{
							OFFSET 8.370511 0.000000 0.000000 
							CHANNELS 3 Zrotation Yrotation Xrotation
							End Site
							{
								OFFSET 4.083176 0.000000 0.000000 
							}
						}
					}
				}
			}
			JOINT rCollar
			{
				OFFSET -3.470700 6.669187 -0.816635 
				CHANNELS 3 Yrotation Zrotation Xrotation
				JOINT rShldr
				{
					OFFSET -3.198488 0.000000 0.000000 
					CHANNELS 3 Zrotation Yrotation Xrotation
					JOINT rForeArm
					{
						OFFSET -10.139888 0.000000 0.000000 
						CHANNELS 3 Yrotation Zrotation Xrotation
						JOINT rHand
						{
							OFFSET -8.370511 0.000000 0.000000 
							CHANNELS 3 Zrotation Yrotation Xrotation
							End Site
							{
								OFFSET -4.083176 0.000000 0.000000 
							}
						}
					}
				}
			}
		}
	}
	JOINT lThigh
	{
		OFFSET 5.308129 -1.633274 1.361059 
		CHANNELS 3 Xrotation Zrotation Yrotation
		JOINT lShin
		{
			OFFSET -2.041588 -20.007561 0.000000 
			CHANNELS 3 Xrotation Zrotation Yrotation
			JOINT lFoot
			{
				OFFSET 0.000000 -19.190928 -1.224953 
				CHANNELS 3 Xrotation Yrotation Zrotation
				End Site
				{
					OFFSET 0.000000 -2.449906 4.627600 
				}
			}
		}
	}
	JOINT rThigh
	{
		OFFSET -5.308129 -1.633274 1.361059 
		CHANNELS 3 Xrotation Zrotation Yrotation
		JOINT rShin
		{
			OFFSET 2.041588 -20.007561 0.000000 
			CHANNELS 3 Xrotation Zrotation Yrotation
			JOINT rFoot
			{
				OFFSET 0.000000 -19.190928 -1.224953 
				CHANNELS 3 Xrotation Yrotation Zrotation
				End Site
				{
					OFFSET 0.000000 -2.449906 4.627600 
				}
			}
		}
	}
}
MOTION
Frames: 15
Frame Time: 0.016667
-9.842581 34.213284 127.135239 4.056950 -11.553800 22.358900 -21.898701 4.248120 2.460220 7.201750 -1.596280 1.814310 9.427382 48.403709 4.651714 -8.603520 0.000000 0.000000 2.000000 -2.000000 0.000000 -84.384499 -5.533190 -157.302994 93.428299 -0.206090 0.156029 3.894580 3.904800 163.479996 -2.000000 2.000000 0.000000 88.923897 11.765300 -153.557999 -84.727097 0.227413 0.136151 -1.957060 6.654990 139.651993 -54.244907 7.047269 12.460858 73.380821 -0.211705 4.556753 -24.577299 -6.399624 -5.645631 -55.066936 7.544503 14.958452 71.696465 -0.099522 -4.452544 -14.421256 -14.966307 -5.312463 
-10.281430 34.122173 129.546005 0.935228 -11.024000 27.076599 -21.600599 4.235900 1.758320 7.399730 -1.131610 1.416790 9.744999 48.161724 3.791155 -8.603520 0.000000 0.000000 2.000000 -2.000000 0.000000 -82.033699 -14.388800 -156.472000 93.936096 -0.204794 0.155946 3.515120 4.223380 158.164001 -2.000000 2.000000 0.000000 86.683296 18.662300 -154.712006 -86.807198 0.222464 0.136518 -1.845560 6.680820 140.638000 -50.231297 7.425771 9.817540 75.881393 -0.382504 4.618122 -28.639343 -7.204101 -6.368853 -51.770271 8.556742 22.693464 62.850266 -0.959060 -4.070381 -10.178860 -14.109510 -4.448677 
-10.757923 34.013432 132.088226 -2.452120 -10.361800 32.862999 -21.405701 4.313550 0.628780 7.802700 -0.133346 0.772370 11.046208 46.563118 4.000917 -8.603520 0.000000 0.000000 2.000000 -2.000000 0.000000 -78.543900 -24.112000 -154.919006 95.166603 -0.201658 0.155696 3.430690 4.288440 157.054993 -2.000000 2.000000 0.000000 83.158203 26.684200 -156.671997 -88.652802 0.218063 0.136692 -1.161740 6.814240 146.449997 -46.405354 7.964843 5.961550 78.106163 -0.520418 4.639663 -32.297215 -8.489892 -7.496104 -47.213837 9.072705 28.529734 58.200207 -1.462499 -3.799533 -7.606728 -15.474362 -4.253485 
-11.228879 34.075443 134.673126 -5.847910 -9.832390 39.164700 -21.467899 4.356510 -0.620123 8.162800 0.810736 0.075770 13.354703 44.128410 5.096127 -8.603520 0.000000 0.000000 2.000000 -2.000000 0.000000 -74.193604 -34.600399 -154.955994 96.201698 -0.199025 0.155433 3.680700 4.093160 160.380997 -2.000000 2.000000 0.000000 78.957397 35.394901 -160.919006 -89.922401 0.215034 0.136730 -0.274777 6.874930 153.917007 -42.954025 9.153616 1.238434 79.631866 -0.548195 4.614091 -35.537876 -10.093878 -8.937162 -42.812580 9.452344 28.741255 57.932632 -1.525698 -3.764719 -8.479471 -17.554615 -4.906517 
-11.577802 34.436611 137.164795 -8.506320 -9.505610 44.666801 -21.827000 4.127630 -1.451500 8.376980 1.011860 -0.355068 15.524897 42.035152 5.930266 -8.603520 0.000000 0.000000 2.000000 -2.000000 0.000000 111.275002 -134.466995 22.684099 96.768097 -0.197586 0.155270 3.982870 3.809280 164.852005 -2.000000 2.000000 0.000000 -106.220001 135.781006 12.157700 -91.250397 0.212079 0.117169 0.332863 6.855980 158.981995 -40.114578 10.725312 -3.308918 79.596771 -0.426512 4.561070 -37.432590 -11.359025 -10.073606 -39.719799 9.819188 23.790846 59.457001 -1.360887 -3.856545 -11.108439 -18.835474 -6.032164 
-11.723167 35.289257 139.466599 -9.992440 -8.821390 48.490799 -22.124300 3.538340 -1.658210 8.739590 0.592638 -0.465780 16.745178 41.157482 6.178842 -8.603520 0.000000 0.000000 2.000000 -2.000000 0.000000 119.053001 -123.995003 16.875700 96.875603 -0.197313 0.155237 4.178450 3.610490 167.841003 -2.000000 2.000000 0.000000 -113.495003 127.271004 2.481440 -93.252403 0.207646 0.116995 0.443991 6.841590 159.906998 -36.778355 11.793852 -6.436584 77.523376 -0.163117 4.503777 -37.385052 -11.763792 -10.137054 -36.906708 9.649516 17.794527 59.893169 -1.248909 -3.914594 -13.208487 -19.208525 -6.847711 
-11.697105 36.568340 141.649338 -10.422700 -7.521770 50.422001 -22.217199 2.890610 -1.327550 9.257610 0.344749 -0.342317 17.217127 40.854294 6.182268 -8.603520 0.000000 0.000000 2.000000 -2.000000 0.000000 131.843002 -115.646004 4.979000 96.611900 -0.197983 0.155316 4.212040 3.569850 168.369995 -2.000000 2.000000 0.000000 -124.289001 119.681999 -10.455800 -95.576599 0.202512 0.116599 0.171369 6.865380 157.621994 -32.262241 12.325290 -7.687037 73.594345 0.256126 4.349669 -35.467712 -11.698815 -9.341472 -33.134380 9.102949 13.726005 58.176689 -1.354585 -3.849690 -14.318886 -18.436020 -6.972855 
-11.546010 38.162373 143.735443 -10.337000 -6.322340 51.199001 -22.375299 2.470910 -0.805592 9.687160 0.450750 -0.135376 17.841684 39.748951 6.393052 -8.603520 0.000000 0.000000 2.000000 -2.000000 0.000000 -28.191000 -69.029602 165.151993 95.674400 -0.200366 0.155573 4.072650 3.719290 166.214996 -2.000000 2.000000 0.000000 40.525799 66.283798 152.649994 -97.109802 0.199136 0.116224 -0.189986 6.876500 154.567993 -27.225895 12.747507 -7.924078 68.282471 0.800358 4.152211 -31.793070 -11.946182 -8.312335 -28.615578 8.697282 11.537675 54.300060 -1.596582 -3.664574 -13.742299 -16.750715 -6.320182 
-11.277635 40.052670 145.714859 -9.973110 -5.781060 51.551601 -22.965000 2.130940 -0.319724 9.833630 0.460565 0.069038 18.865364 37.925945 6.904654 -8.603520 0.000000 0.000000 2.000000 -2.000000 0.000000 -5.691420 -69.545799 142.822998 93.809196 -0.205118 0.155968 3.798410 3.995460 162.067993 -2.000000 2.000000 0.000000 22.131901 69.778503 132.649002 -97.002403 0.199372 0.116253 -0.396782 6.871820 152.824005 -22.395546 13.225715 -7.988297 61.626789 1.374775 3.874743 -25.926125 -12.966845 -7.115114 -24.198540 8.616113 10.032313 48.801208 -1.936778 -3.395624 -10.717553 -14.581631 -4.869013 
-10.901291 42.226593 147.629105 -9.413060 -5.752110 52.035000 -23.915001 1.622460 -0.004631 9.902250 0.239932 0.179472 20.188379 36.176006 7.765127 -8.603520 0.000000 0.000000 2.000000 -2.000000 0.000000 12.666500 -67.377296 125.317001 90.996696 -0.212301 0.156270 3.467590 4.265730 157.477997 -2.000000 2.000000 0.000000 4.410010 70.516098 113.428001 -95.195702 0.203352 0.116678 -0.417698 6.872190 152.686005 -17.931967 13.489836 -8.400659 54.030964 2.017608 3.480575 -17.217533 -14.204679 -5.184582 -20.168772 8.577868 8.331763 42.296761 -2.256457 -3.026741 -4.544620 -12.064777 -2.954405 
-10.435716 44.600163 149.518616 -8.749700 -6.013700 52.778301 -25.100599 0.948240 0.061122 9.990230 0.019200 0.152668 22.043470 33.999866 9.121385 -8.603520 0.000000 0.000000 2.000000 -2.000000 0.000000 26.174000 -64.119499 113.582001 87.324699 -0.221231 0.136613 3.191870 4.459670 153.843994 -2.000000 2.000000 0.000000 -9.424460 69.090202 98.755898 -92.031700 0.210348 0.117120 -0.376253 6.876100 153.041000 -14.009138 13.385525 -9.650617 46.177338 2.646387 3.032566 -4.329425 -13.898136 -1.912887 -17.153717 8.512766 6.195808 36.122967 -2.482136 -2.671655 5.195414 -9.930210 -1.038201 
-9.928061 46.966480 151.353104 -8.069920 -6.507740 53.605801 -26.348301 0.400302 -0.122360 10.107400 0.134451 0.004501 24.125780 30.706570 10.280627 -8.603520 0.000000 0.000000 2.000000 -2.000000 0.000000 36.400101 -60.502800 105.625999 82.842300 -0.231884 0.135698 3.033570 4.563590 151.908997 -2.000000 2.000000 0.000000 -20.226200 66.347603 88.077003 -87.803200 0.220090 0.136630 -0.379778 6.874340 153.011993 -11.228856 12.875151 -11.887573 39.793743 3.125458 2.609734 10.607042 -7.627724 0.318956 -15.646758 8.315413 3.300611 31.847366 -2.548363 -2.417494 15.224201 -9.790137 0.529244 
-9.478718 49.209846 153.010101 -7.351290 -7.080590 54.298801 -27.568300 0.170551 -0.373297 10.009200 0.604840 -0.161438 25.569532 27.543184 10.672517 -8.603520 0.000000 0.000000 2.000000 -2.000000 0.000000 44.725700 -56.990398 99.173401 77.256401 -0.245008 0.133397 3.027770 4.566310 151.772003 -2.000000 2.000000 0.000000 -29.517000 62.653999 79.478104 -82.715401 0.232185 0.135626 -0.378603 6.874930 153.020996 -9.843044 11.742655 -14.423300 36.726898 3.359919 2.400491 20.349817 4.322607 -3.006123 -15.532904 7.618949 -0.986928 30.712561 -2.511969 -2.388511 21.844402 -8.909165 1.234505 
-9.203781 51.444923 154.408707 -6.993930 -7.512690 54.844501 -28.525499 0.348464 -0.585671 9.480050 1.178800 -0.250237 25.992502 26.232729 10.734360 -8.603520 0.000000 0.000000 2.000000 -2.000000 0.000000 52.197102 -53.720600 92.478600 70.488800 -0.260512 0.128916 3.164110 4.473740 153.531006 -2.000000 2.000000 0.000000 -37.874802 58.420799 71.671799 -77.275902 0.244962 0.133371 -0.305377 6.877110 153.651001 -8.973917 11.032969 -13.742368 36.736443 3.373208 2.424026 23.912022 13.162225 -7.227799 -15.498401 7.086682 -4.642972 31.846891 -2.465211 -2.482845 26.589783 -6.050523 0.710405 
-9.155296 53.622742 155.608475 -7.674690 -7.569110 55.576302 -28.967199 0.773628 -0.880910 8.520830 1.566370 -0.353328 25.804966 26.435436 10.956910 -8.603520 0.000000 0.000000 2.000000 -2.000000 0.000000 59.021400 -50.771000 85.346199 63.506401 -0.275839 0.122411 3.430690 4.288440 157.054993 -2.000000 2.000000 0.000000 -44.738201 54.068901 64.627998 -72.441902 0.256093 0.130359 -0.160846 6.873010 154.824005 -7.727783 11.831371 -8.672991 38.629147 3.305961 2.528831 27.289402 12.027601 -7.591822 -14.671062 7.858449 -5.376019 33.840565 -2.443306 -2.576355 30.866253 -3.753154 0.046383 
